HIERARCHY
ROOT Hips
{
	OFFSET -0.638470 1.435053 0.000000
	CHANNELS 6 Xposition Yposition Zposition Xrotation Yrotation Zrotation
	JOINT Bip01_Pelvis
	{
		OFFSET 0.000000 0.000000 -0.000000
		CHANNELS 6 Xposition Yposition Zposition Xrotation Yrotation Zrotation
		JOINT BN_Tail_01
		{
			OFFSET -0.251828 0.158051 0.002214
			CHANNELS 6 Xposition Yposition Zposition Xrotation Yrotation Zrotation
			JOINT BN_Tail_02
			{
				OFFSET -0.055252 -0.292920 0.029759
				CHANNELS 6 Xposition Yposition Zposition Xrotation Yrotation Zrotation
				JOINT BN_Tail_03
				{
					OFFSET -0.063462 -0.295802 -0.009279
					CHANNELS 6 Xposition Yposition Zposition Xrotation Yrotation Zrotation
					JOINT BN_Tail_04
					{
						OFFSET -0.122777 -0.229376 -0.051218
						CHANNELS 6 Xposition Yposition Zposition Xrotation Yrotation Zrotation
						End Site
						{
							OFFSET 0.147049 -0.218130 -0.033260
						}
					}
				}
			}
		}
		JOINT Bip01_Spine
		{
			OFFSET 0.231004 0.014429 0.000014
			CHANNELS 6 Xposition Yposition Zposition Xrotation Yrotation Zrotation
			JOINT Bip01_R_Thigh
			{
				OFFSET -0.228734 -0.014440 0.259823
				CHANNELS 6 Xposition Yposition Zposition Xrotation Yrotation Zrotation
				JOINT Bip01_R_Calf
				{
					OFFSET 0.149708 -0.688047 0.023072
					CHANNELS 6 Xposition Yposition Zposition Xrotation Yrotation Zrotation
					JOINT Bip01_R_Foot
					{
						OFFSET -0.223912 -0.555148 -0.049855
						CHANNELS 6 Xposition Yposition Zposition Xrotation Yrotation Zrotation
						JOINT Bip01_R_Toe0
						{
							OFFSET 0.205156 -0.190076 0.052833
							CHANNELS 6 Xposition Yposition Zposition Xrotation Yrotation Zrotation
							End Site
							{
								OFFSET 0.000018 0.284621 0.000147
							}
						}
					}
				}
			}
			JOINT Bip01_L_Thigh
			{
				OFFSET -0.233275 -0.014388 -0.259860
				CHANNELS 6 Xposition Yposition Zposition Xrotation Yrotation Zrotation
				JOINT Bip01_L_Calf
				{
					OFFSET 0.103196 -0.696667 -0.018948
					CHANNELS 6 Xposition Yposition Zposition Xrotation Yrotation Zrotation
					JOINT Bip01_L_Foot
					{
						OFFSET -0.245133 -0.546127 0.049664
						CHANNELS 6 Xposition Yposition Zposition Xrotation Yrotation Zrotation
						JOINT Bip01_L_Toe0
						{
							OFFSET 0.205140 -0.190098 -0.052814
							CHANNELS 6 Xposition Yposition Zposition Xrotation Yrotation Zrotation
							End Site
							{
								OFFSET 0.000006 0.284621 -0.000316
							}
						}
					}
				}
			}
			JOINT Bip01_Spine1
			{
				OFFSET 0.419549 0.010961 -0.013086
				CHANNELS 6 Xposition Yposition Zposition Xrotation Yrotation Zrotation
				JOINT Bip01_Spine2
				{
					OFFSET 0.408347 0.028529 -0.012770
					CHANNELS 6 Xposition Yposition Zposition Xrotation Yrotation Zrotation
					JOINT Bip01_Neck
					{
						OFFSET 0.338811 0.285813 0.004795
						CHANNELS 6 Xposition Yposition Zposition Xrotation Yrotation Zrotation
						JOINT Bip01_Head
						{
							OFFSET 0.358737 0.023694 0.007412
							CHANNELS 6 Xposition Yposition Zposition Xrotation Yrotation Zrotation
							JOINT BN_Eyebrow_L
							{
								OFFSET 0.459189 -0.112929 -0.207698
								CHANNELS 6 Xposition Yposition Zposition Xrotation Yrotation Zrotation
								End Site
								{
									OFFSET 0.133227 0.345337 0.007912
								}
							}
							JOINT BN_Eyebrow_R
							{
								OFFSET 0.447721 -0.112098 0.231818
								CHANNELS 6 Xposition Yposition Zposition Xrotation Yrotation Zrotation
								End Site
								{
									OFFSET 0.133492 0.345318 -0.002240
								}
							}
							JOINT BN_Ear_L_01
							{
								OFFSET 0.142448 0.104846 -0.170427
								CHANNELS 6 Xposition Yposition Zposition Xrotation Yrotation Zrotation
								JOINT BN_Ear_L_02
								{
									OFFSET -0.083690 -0.238753 -0.034438
									CHANNELS 6 Xposition Yposition Zposition Xrotation Yrotation Zrotation
									End Site
									{
										OFFSET -0.126318 0.144229 -0.168626
									}
								}
							}
							JOINT BN_Mouth_01
							{
								OFFSET -0.020845 -0.180430 -0.000206
								CHANNELS 6 Xposition Yposition Zposition Xrotation Yrotation Zrotation
								End Site
								{
									OFFSET 0.245558 0.277008 0.006107
								}
							}
							JOINT BN_Ear_R_01
							{
								OFFSET 0.133367 0.105498 0.177239
								CHANNELS 6 Xposition Yposition Zposition Xrotation Yrotation Zrotation
								JOINT BN_Ear_R_02
								{
									OFFSET -0.074872 -0.240787 0.040107
									CHANNELS 6 Xposition Yposition Zposition Xrotation Yrotation Zrotation
									End Site
									{
										OFFSET 0.093503 -0.082870 -0.222671
									}
								}
							}
							JOINT BN_Nose_01
							{
								OFFSET 0.471272 -0.208616 0.012699
								CHANNELS 6 Xposition Yposition Zposition Xrotation Yrotation Zrotation
								JOINT BN_Nose_02
								{
									OFFSET 0.076379 -0.339505 0.013347
									CHANNELS 6 Xposition Yposition Zposition Xrotation Yrotation Zrotation
									JOINT BN_Nose_03
									{
										OFFSET -0.035108 -0.320643 -0.000054
										CHANNELS 6 Xposition Yposition Zposition Xrotation Yrotation Zrotation
										JOINT BN_Nose_04
										{
											OFFSET -0.120659 -0.262204 -0.017643
											CHANNELS 6 Xposition Yposition Zposition Xrotation Yrotation Zrotation
											JOINT BN_Nose_05
											{
												OFFSET -0.238823 -0.158587 -0.019394
												CHANNELS 6 Xposition Yposition Zposition Xrotation Yrotation Zrotation
												JOINT BN_Nose_06
												{
													OFFSET -0.151660 0.098344 -0.011572
													CHANNELS 6 Xposition Yposition Zposition Xrotation Yrotation Zrotation
													End Site
													{
														OFFSET -0.170805 -0.059338 -0.010550
													}
												}
											}
										}
									}
								}
							}
						}
						JOINT Bip01_R_Clavicle
						{
							OFFSET -0.389642 -0.069071 0.270815
							CHANNELS 6 Xposition Yposition Zposition Xrotation Yrotation Zrotation
							JOINT Bip01_R_UpperArm
							{
								OFFSET 0.297928 -0.399194 0.055021
								CHANNELS 6 Xposition Yposition Zposition Xrotation Yrotation Zrotation
								JOINT Bip01_R_Forearm
								{
									OFFSET -0.175741 -0.570802 0.016792
									CHANNELS 6 Xposition Yposition Zposition Xrotation Yrotation Zrotation
									JOINT Bip01_R_Hand
									{
										OFFSET 0.111534 -0.507633 -0.007184
										CHANNELS 6 Xposition Yposition Zposition Xrotation Yrotation Zrotation
										End Site
										{
											OFFSET -0.022081 0.004104 -0.519305
										}
									}
								}
							}
						}
						JOINT Bip01_L_Clavicle
						{
							OFFSET -0.383456 -0.067190 -0.279962
							CHANNELS 6 Xposition Yposition Zposition Xrotation Yrotation Zrotation
							JOINT Bip01_L_UpperArm
							{
								OFFSET 0.318955 -0.382331 -0.056872
								CHANNELS 6 Xposition Yposition Zposition Xrotation Yrotation Zrotation
								JOINT Bip01_L_Forearm
								{
									OFFSET -0.115344 -0.586063 0.014381
									CHANNELS 6 Xposition Yposition Zposition Xrotation Yrotation Zrotation
									JOINT Bip01_L_Hand
									{
										OFFSET 0.091957 -0.510185 0.037926
										CHANNELS 6 Xposition Yposition Zposition Xrotation Yrotation Zrotation
										End Site
										{
											OFFSET -0.022870 -0.010498 0.519181
										}
									}
								}
							}
						}
					}
				}
			}
		}
	}
}
MOTION
Frames: 4
Frame Time: 0.033333
-0.638470 1.435182 -0.002126 0.000000 0.000013 -0.000013 -0.000000 -0.000000 -0.000000 -0.128375 1.508824 0.656553 -0.251828 0.158051 0.002214 4.137675 7.221410 -13.004964 -0.055252 -0.292919 0.029759 4.419927 -14.790590 6.404125 -0.063462 -0.295802 -0.009279 4.762660 -6.258470 10.242098 -0.122776 -0.229376 -0.051218 -1.695903 2.658654 0.190696 0.231103 0.011774 0.006131 -0.042848 -1.681208 -6.080459 -0.218755 -0.035359 0.260322 0.054609 0.182901 4.954124 0.149708 -0.688047 0.023072 -0.059749 -0.003068 0.300883 -0.223912 -0.555148 -0.049855 0.125164 -0.065323 0.146256 0.205156 -0.190076 0.052833 0.000001 0.000010 -0.000001 -0.238518 -0.037045 -0.259000 0.112095 0.137400 5.906309 0.103196 -0.696667 -0.018948 -0.075670 -0.000557 -0.382367 -0.245133 -0.546127 0.049664 0.109523 -0.060773 -0.104716 0.205140 -0.190099 -0.052814 -0.000001 0.000008 -0.000002 0.419549 0.010961 -0.013086 0.110125 0.512998 6.240192 0.408347 0.028529 -0.012770 -0.297030 1.505643 -2.583687 0.338811 0.285813 0.004795 -1.114882 2.951505 -6.556002 0.358737 0.023694 0.007412 -5.370557 2.899657 -0.700124 0.459189 -0.112929 -0.207698 3.888782 -1.444061 3.317996 0.447720 -0.112098 0.231825 -4.059781 1.461234 3.115976 0.142447 0.104847 -0.170427 -4.223359 -9.632079 -5.105253 -0.083690 -0.238753 -0.034438 15.834808 -7.543736 9.105204 -0.020845 -0.180430 -0.000206 0.458211 -0.097422 -18.390645 0.133367 0.105498 0.177239 4.059312 15.168902 -5.385089 -0.074872 -0.240787 0.040107 -6.398211 -4.895922 -5.579440 0.471273 -0.208615 0.012699 -0.294675 0.709439 18.965803 0.076379 -0.339505 0.013347 2.226602 2.285483 17.717757 -0.035108 -0.320643 -0.000054 -16.462252 6.042303 39.684857 -0.120658 -0.262204 -0.017643 2.752162 3.634166 -28.431701 -0.238823 -0.158587 -0.019394 -3.660659 7.275079 6.814484 -0.151660 0.098344 -0.011572 -1.911570 -10.365640 44.235085 -0.391926 -0.119861 0.248972 1.074346 -2.236805 12.377633 0.297928 -0.399193 0.055021 -0.228478 -2.253323 -6.572175 -0.175741 -0.570802 0.016792 0.037224 0.001948 0.450834 0.111534 -0.507633 -0.007184 0.573825 -0.137827 2.187584 -0.359018 -0.103390 -0.300613 1.681496 -3.246695 10.290444 0.318955 -0.382331 -0.056872 0.100878 -1.814285 -6.988307 -0.115344 -0.586063 0.014381 -1.378730 0.391726 10.154310 0.091957 -0.510185 0.037926 1.261584 -0.172235 -4.953815 
-0.638470 1.435198 -0.001845 0.000000 0.000013 -0.000013 0.000000 -0.000000 0.000000 -0.138139 1.184137 0.531083 -0.251828 0.158051 0.002214 3.364359 6.618915 -12.423872 -0.055252 -0.292919 0.029759 5.120393 -15.857722 6.621554 -0.063462 -0.295802 -0.009279 5.577102 -6.660878 11.064188 -0.122777 -0.229376 -0.051218 1.369909 -1.670519 -0.748356 0.231108 0.012297 0.004808 -0.023088 -1.380621 -5.908046 -0.220144 -0.035258 0.260491 0.064457 0.195650 4.973185 0.149708 -0.688047 0.023072 -0.059750 -0.003069 0.300882 -0.223912 -0.555148 -0.049855 0.115694 -0.056113 0.094234 0.205156 -0.190076 0.052833 0.000001 0.000010 -0.000001 -0.237185 -0.036784 -0.258928 0.108621 0.165896 5.772228 0.103196 -0.696667 -0.018948 -0.066326 -0.000516 -0.335147 -0.245133 -0.546127 0.049664 0.083863 -0.043884 -0.057283 0.205140 -0.190099 -0.052814 -0.000001 0.000011 -0.000002 0.419549 0.010961 -0.013086 0.099774 0.546294 6.056336 0.408347 0.028529 -0.012770 -0.348924 1.665880 -2.098200 0.338811 0.285814 0.004795 -1.252463 3.149604 -5.693939 0.358737 0.023694 0.007412 -5.052924 3.841251 -0.298294 0.459189 -0.112929 -0.207698 3.888794 -1.444046 3.317997 0.447719 -0.112098 0.231825 -4.038503 1.454633 3.099640 0.142448 0.104847 -0.170427 -4.247977 -9.426362 -5.430473 -0.083690 -0.238753 -0.034438 16.230300 -7.603381 9.519474 -0.020845 -0.180430 -0.000206 0.528894 -0.125558 -21.570876 0.133367 0.105498 0.177239 3.863375 14.778526 -5.343996 -0.074872 -0.240787 0.040107 -6.143879 -5.026013 -6.216084 0.471273 -0.208615 0.012699 -0.283377 0.727275 19.748657 0.076379 -0.339505 0.013347 1.998668 2.365182 20.168446 -0.035108 -0.320643 -0.000054 -15.877222 6.305733 41.485975 -0.120659 -0.262204 -0.017643 2.020260 3.438320 -23.063030 -0.238823 -0.158587 -0.019394 -5.220077 6.332760 10.464118 -0.151660 0.098344 -0.011572 -2.081516 -8.747151 37.778490 -0.394479 -0.114659 0.247382 1.216375 -2.448860 11.382738 0.297928 -0.399193 0.055021 -0.200546 -2.398364 -6.695941 -0.175740 -0.570801 0.016792 0.010485 0.000520 0.126978 0.111534 -0.507633 -0.007184 0.602949 -0.136178 2.378493 -0.359546 -0.097169 -0.302048 1.770628 -3.449496 9.339994 0.318955 -0.382331 -0.056872 0.139466 -1.978729 -7.153935 -0.115344 -0.586063 0.014381 -1.357121 0.387582 9.998570 0.091957 -0.510185 0.037926 1.304390 -0.180108 -4.957026 
-0.638470 1.435209 -0.001568 0.000000 0.000013 -0.000013 -0.000000 -0.000000 -0.000000 -0.143918 0.866071 0.408894 -0.251827 0.158051 0.002214 2.659308 6.035742 -11.884225 -0.055252 -0.292920 0.029759 5.778869 -16.831893 6.838947 -0.063462 -0.295802 -0.009279 6.419592 -7.029262 11.829883 -0.122776 -0.229376 -0.051218 3.964894 -5.535270 -1.287298 0.231104 0.012787 0.003554 -0.011688 -1.107903 -5.739322 -0.221445 -0.035153 0.260657 0.064617 0.248156 5.007606 0.149708 -0.688047 0.023072 -0.059749 -0.003068 0.300883 -0.223912 -0.555148 -0.049855 0.097718 -0.040595 0.014158 0.205156 -0.190076 0.052833 0.000001 0.000010 -0.000001 -0.235928 -0.036495 -0.258854 0.104186 0.199159 5.631894 0.103196 -0.696667 -0.018948 -0.059886 -0.000482 -0.302606 -0.245133 -0.546127 0.049664 0.081366 -0.041655 -0.047625 0.205140 -0.190099 -0.052814 -0.000001 0.000010 -0.000002 0.419549 0.010961 -0.013086 0.092717 0.573009 5.888853 0.408347 0.028529 -0.012770 -0.402685 1.828797 -1.605742 0.338811 0.285814 0.004795 -1.390514 3.342619 -4.804042 0.358737 0.023693 0.007412 -4.707452 4.786777 0.130669 0.459189 -0.112929 -0.207698 3.890071 -1.444435 3.319097 0.447718 -0.112097 0.231825 -4.038503 1.454638 3.099640 0.142448 0.104847 -0.170427 -4.265340 -9.254820 -5.701542 -0.083690 -0.238753 -0.034438 16.638455 -7.661606 9.944568 -0.020845 -0.180430 -0.000206 0.598557 -0.157779 -24.797828 0.133367 0.105498 0.177239 3.666894 14.419344 -5.282146 -0.074872 -0.240787 0.040107 -5.884654 -5.162700 -6.872535 0.471272 -0.208615 0.012699 -0.269667 0.751578 20.525229 0.076379 -0.339505 0.013347 1.597109 2.470918 23.856114 -0.035108 -0.320643 -0.000054 -14.915557 6.474444 44.514221 -0.120658 -0.262204 -0.017643 0.924298 3.021795 -15.354081 -0.238823 -0.158587 -0.019394 -6.996510 4.999967 15.950459 -0.151661 0.098344 -0.011572 -1.870027 -6.725051 29.533717 -0.396970 -0.109239 0.245833 1.347055 -2.657628 10.367873 0.297928 -0.399194 0.055021 -0.171733 -2.541462 -6.813838 -0.175741 -0.570801 0.016792 -0.017543 -0.000814 -0.212414 0.111534 -0.507633 -0.007184 0.632565 -0.134435 2.572746 -0.360042 -0.090816 -0.303436 1.855547 -3.648029 8.374638 0.318955 -0.382331 -0.056872 0.179121 -2.147465 -7.327995 -0.115344 -0.586063 0.014381 -1.336736 0.383615 9.851568 0.091957 -0.510185 0.037926 1.313701 -0.179871 -4.910337 
-0.638470 1.435220 -0.001290 0.000000 0.000013 -0.000013 0.000000 0.000000 -0.000000 -0.142645 0.580615 0.299242 -0.251828 0.158051 0.002214 2.045374 5.484825 -11.402859 -0.055252 -0.292919 0.029759 6.390018 -17.691204 7.056590 -0.063462 -0.295802 -0.009279 7.332297 -7.380784 12.532220 -0.122776 -0.229376 -0.051218 6.335094 -9.151287 -1.575315 0.231094 0.013227 0.002412 -0.004067 -0.853435 -5.577994 -0.222631 -0.035040 0.260798 0.063746 0.255345 5.010749 0.149708 -0.688047 0.023072 -0.059795 -0.003071 0.301114 -0.223912 -0.555148 -0.049855 0.095409 -0.039113 0.008762 0.205156 -0.190076 0.052833 0.000001 0.000010 -0.000001 -0.234821 -0.036185 -0.258761 0.119958 0.215535 5.505016 0.103196 -0.696667 -0.018948 -0.048079 -0.000413 -0.242947 -0.245133 -0.546127 0.049664 0.069208 -0.031892 -0.009956 0.205140 -0.190099 -0.052814 -0.000001 0.000007 -0.000002 0.419549 0.010961 -0.013086 0.084452 0.603227 5.692734 0.408347 0.028529 -0.012770 -0.458506 1.989979 -1.116826 0.338811 0.285813 0.004795 -1.530127 3.529014 -3.900892 0.358737 0.023694 0.007412 -4.347985 5.729713 0.580256 0.459189 -0.112929 -0.207698 3.844326 -1.429921 3.280099 0.447717 -0.112097 0.231825 -4.038708 1.454704 3.099768 0.142448 0.104847 -0.170427 -4.279143 -9.110690 -5.932359 -0.083690 -0.238753 -0.034438 17.048702 -7.717019 10.371812 -0.020845 -0.180430 -0.000206 0.671481 -0.200940 -27.615877 0.133367 0.105498 0.177239 3.472877 14.089844 -5.204132 -0.074872 -0.240787 0.040107 -5.625191 -5.303305 -7.533074 0.471272 -0.208616 0.012699 -0.243077 0.769669 21.286005 0.076379 -0.339505 0.013347 1.057433 2.548691 28.540330 -0.035108 -0.320643 -0.000054 -13.693602 6.692082 48.577156 -0.120659 -0.262204 -0.017643 -0.346979 2.244213 -5.751432 -0.238823 -0.158587 -0.019394 -8.741426 3.216089 22.924085 -0.151661 0.098345 -0.011572 -0.929862 -4.566063 19.729749 -0.399363 -0.103674 0.244343 1.473762 -2.863319 9.342825 0.297928 -0.399194 0.055021 -0.144403 -2.675410 -6.923282 -0.175741 -0.570802 0.016792 -0.045846 -0.001992 -0.555019 0.111534 -0.507633 -0.007184 0.663039 -0.132540 2.772589 -0.360488 -0.084395 -0.304759 1.934176 -3.847582 7.396740 0.318955 -0.382331 -0.056872 0.217129 -2.311291 -7.498264 -0.115344 -0.586063 0.014381 -1.313299 0.378986 9.682484 0.091957 -0.510185 0.037926 1.325036 -0.178736 -4.831873 
